<?xml version="1.0" encoding="utf-8"?>
<!-- Generator: Adobe Illustrator 22.0.0, SVG Export Plug-In . SVG Version: 6.00 Build 0)  -->
<svg version="1.1" id="Layer_1" xmlns="http://www.w3.org/2000/svg" xmlns:xlink="http://www.w3.org/1999/xlink" x="0px" y="0px"
	 viewBox="0 0 554.481 80.039" style="enable-background:new 0 0 554.481 80.039;" xml:space="preserve">
<style type="text/css">
	.st0{fill:#231F20;}
	.st1{
		fill:none;
		stroke:#231F20;
		stroke-width:15.3175;
		stroke-miterlimit:10;
	}
	.st2{
		fill: url(#redGradient);
	}
	.st3{fill:none;}
	.st4{fill:#FFFFFF;}
</style>
<defs>
	<radialGradient id="redGradient">
		<stop offset="10%" stop-color="#ff3333" />
		<stop offset="100%" stop-color="#dc0000" />
	</radialGradient>
</defs>
<g>
	<g>
		<path class="st0" d="M0.459,5.494H27.93c3.609,0,7.034,0.351,10.277,1.053c3.241,0.702,6.081,1.872,8.522,3.509
			c2.439,1.639,4.377,3.845,5.815,6.617c1.437,2.774,2.156,6.233,2.156,10.377c0,5.014-1.303,9.274-3.91,12.783
			c-2.607,3.51-6.417,5.732-11.43,6.668l18.047,29.978H38.658L23.819,48.104h-7.72v28.374H0.459V5.494z M16.099,34.87h9.224
			c1.404,0,2.891-0.05,4.462-0.15c1.57-0.1,2.99-0.4,4.261-0.902c1.269-0.501,2.322-1.286,3.158-2.355
			c0.835-1.068,1.253-2.572,1.253-4.512c0-1.805-0.368-3.241-1.103-4.312c-0.736-1.068-1.671-1.888-2.807-2.456
			c-1.137-0.567-2.441-0.953-3.91-1.153c-1.471-0.2-2.908-0.301-4.311-0.301H16.099V34.87z"/>
		<path class="st0" d="M104.448,68.057c-2.406,3.075-5.449,5.448-9.124,7.118c-3.677,1.67-7.486,2.507-11.43,2.507
			c-3.744,0-7.269-0.602-10.577-1.805s-6.183-2.923-8.623-5.163c-2.44-2.239-4.361-4.929-5.765-8.071
			c-1.404-3.141-2.105-6.65-2.105-10.527c0-3.876,0.702-7.385,2.105-10.527c1.403-3.141,3.324-5.831,5.765-8.071
			c2.439-2.238,5.314-3.96,8.623-5.163s6.833-1.805,10.577-1.805c3.475,0,6.633,0.602,9.475,1.805
			c2.84,1.203,5.247,2.925,7.219,5.163c1.971,2.24,3.492,4.931,4.562,8.071c1.068,3.143,1.604,6.651,1.604,10.527v4.712h-34.89
			c0.602,2.875,1.905,5.164,3.91,6.868c2.005,1.704,4.477,2.557,7.419,2.557c2.472,0,4.562-0.552,6.266-1.654
			c1.705-1.103,3.191-2.522,4.462-4.261L104.448,68.057z M91.715,46.601c0.066-2.539-0.769-4.712-2.506-6.517
			c-1.739-1.805-3.978-2.707-6.717-2.707c-1.671,0-3.143,0.268-4.412,0.802c-1.271,0.536-2.356,1.221-3.258,2.056
			c-0.902,0.836-1.604,1.805-2.105,2.907c-0.501,1.104-0.787,2.256-0.852,3.459H91.715z"/>
		<path class="st0" d="M144.511,43.493c-0.736-1.069-1.772-1.955-3.108-2.657c-1.338-0.702-2.774-1.053-4.312-1.053
			c-3.81,0-6.767,1.137-8.873,3.409s-3.158,5.247-3.158,8.923c0,3.677,1.053,6.651,3.158,8.923c2.105,2.273,5.063,3.409,8.873,3.409
			c1.67,0,3.108-0.366,4.312-1.103c1.203-0.735,2.238-1.604,3.108-2.607l9.926,10.428c-2.34,2.406-5.098,4.095-8.271,5.062
			c-3.175,0.969-6.2,1.454-9.074,1.454c-3.744,0-7.269-0.602-10.577-1.805s-6.183-2.923-8.623-5.163
			c-2.44-2.239-4.361-4.929-5.765-8.071c-1.404-3.141-2.105-6.65-2.105-10.527c0-3.876,0.702-7.385,2.105-10.527
			c1.403-3.141,3.324-5.831,5.765-8.071c2.439-2.238,5.314-3.96,8.623-5.163s6.833-1.805,10.577-1.805
			c2.874,0,5.898,0.485,9.074,1.454c3.174,0.97,5.931,2.656,8.271,5.062L144.511,43.493z"/>
		<path class="st0" d="M152.862,52.115c0-3.876,0.702-7.385,2.105-10.527c1.403-3.141,3.324-5.831,5.765-8.071
			c2.439-2.238,5.314-3.96,8.623-5.163s6.833-1.805,10.577-1.805c3.743,0,7.269,0.602,10.578,1.805s6.182,2.925,8.623,5.163
			c2.439,2.24,4.361,4.931,5.765,8.071c1.404,3.143,2.105,6.651,2.105,10.527c0,3.877-0.702,7.387-2.105,10.527
			c-1.403,3.143-3.326,5.832-5.765,8.071c-2.441,2.24-5.314,3.96-8.623,5.163s-6.835,1.805-10.578,1.805
			c-3.744,0-7.269-0.602-10.577-1.805s-6.183-2.923-8.623-5.163c-2.44-2.239-4.361-4.929-5.765-8.071
			C153.564,59.502,152.862,55.992,152.862,52.115z M167.901,52.115c0,3.677,1.053,6.651,3.158,8.923
			c2.105,2.273,5.063,3.409,8.873,3.409c3.81,0,6.768-1.136,8.873-3.409c2.105-2.271,3.158-5.246,3.158-8.923
			c0-3.676-1.053-6.65-3.158-8.923s-5.063-3.409-8.873-3.409c-3.81,0-6.767,1.137-8.873,3.409S167.901,48.439,167.901,52.115z"/>
		<path class="st0" d="M212.195,27.752h15.039v7.82h0.2c1.604-3.008,3.509-5.264,5.715-6.768s4.979-2.256,8.322-2.256
			c0.868,0,1.737,0.034,2.606,0.101c0.868,0.067,1.67,0.2,2.406,0.4v13.736c-1.07-0.334-2.123-0.585-3.158-0.752
			c-1.037-0.167-2.123-0.251-3.258-0.251c-2.875,0-5.147,0.401-6.818,1.203c-1.671,0.802-2.958,1.922-3.86,3.358
			c-0.902,1.438-1.488,3.158-1.754,5.164c-0.268,2.005-0.401,4.21-0.401,6.616v20.354h-15.039V27.752z"/>
		<path class="st0" d="M300.243,76.478h-13.837v-6.417h-0.2c-0.602,0.87-1.388,1.755-2.356,2.657
			c-0.97,0.902-2.105,1.722-3.408,2.456c-1.304,0.736-2.741,1.337-4.312,1.805c-1.571,0.467-3.193,0.702-4.863,0.702
			c-3.609,0-6.885-0.619-9.825-1.854c-2.942-1.236-5.464-2.974-7.57-5.214c-2.105-2.238-3.727-4.896-4.863-7.971
			c-1.137-3.073-1.704-6.45-1.704-10.127c0-3.408,0.517-6.667,1.554-9.774c1.036-3.108,2.507-5.865,4.412-8.271
			s4.227-4.327,6.968-5.766c2.74-1.437,5.848-2.155,9.324-2.155c3.141,0,6.066,0.485,8.773,1.454
			c2.707,0.97,4.928,2.624,6.667,4.963h0.2V0.682h15.04V76.478z M286.407,52.115c0-3.676-1.053-6.65-3.158-8.923
			s-5.062-3.409-8.873-3.409c-3.81,0-6.767,1.137-8.873,3.409s-3.158,5.247-3.158,8.923c0,3.677,1.053,6.651,3.158,8.923
			c2.105,2.273,5.063,3.409,8.873,3.409c3.811,0,6.768-1.136,8.873-3.409C285.354,58.767,286.407,55.792,286.407,52.115z"/>
	</g>
	<circle class="st1" cx="364.669" cy="41.175" r="30.635"/>
	<circle class="st2" cx="364.669" cy="41.175" r="22.976"/>
	<g>
		<path class="st0" d="M408.98,27.752h14.438v6.617h0.201c0.467-0.936,1.136-1.87,2.005-2.808c0.868-0.935,1.905-1.77,3.108-2.506
			c1.203-0.735,2.572-1.337,4.11-1.805c1.537-0.467,3.208-0.702,5.013-0.702c3.811,0,6.884,0.586,9.225,1.755
			c2.339,1.17,4.16,2.791,5.464,4.862c1.304,2.072,2.188,4.512,2.656,7.319c0.468,2.807,0.702,5.849,0.702,9.123v26.87h-15.039
			V52.616c0-1.403-0.05-2.857-0.15-4.361c-0.1-1.504-0.4-2.891-0.902-4.16c-0.501-1.27-1.271-2.307-2.306-3.108
			c-1.037-0.802-2.523-1.203-4.462-1.203c-1.939,0-3.509,0.351-4.712,1.053s-2.123,1.639-2.757,2.808
			c-0.637,1.17-1.053,2.49-1.254,3.96c-0.2,1.471-0.301,3.008-0.301,4.611v24.264H408.98V27.752z"/>
		<path class="st0" d="M495.474,43.493c-0.736-1.069-1.772-1.955-3.108-2.657c-1.338-0.702-2.774-1.053-4.312-1.053
			c-3.81,0-6.768,1.137-8.873,3.409s-3.158,5.247-3.158,8.923c0,3.677,1.053,6.651,3.158,8.923c2.105,2.273,5.063,3.409,8.873,3.409
			c1.67,0,3.108-0.366,4.312-1.103c1.203-0.735,2.238-1.604,3.108-2.607l9.926,10.428c-2.341,2.406-5.098,4.095-8.271,5.062
			c-3.176,0.969-6.201,1.454-9.074,1.454c-3.744,0-7.269-0.602-10.577-1.805s-6.184-2.923-8.622-5.163
			c-2.441-2.239-4.361-4.929-5.766-8.071c-1.403-3.141-2.105-6.65-2.105-10.527c0-3.876,0.702-7.385,2.105-10.527
			c1.404-3.141,3.324-5.831,5.766-8.071c2.438-2.238,5.313-3.96,8.622-5.163s6.833-1.805,10.577-1.805
			c2.873,0,5.898,0.485,9.074,1.454c3.174,0.97,5.931,2.656,8.271,5.062L495.474,43.493z"/>
		<path class="st0" d="M551.578,68.057c-2.406,3.075-5.448,5.448-9.124,7.118c-3.677,1.67-7.486,2.507-11.43,2.507
			c-3.744,0-7.269-0.602-10.577-1.805s-6.184-2.923-8.622-5.163c-2.441-2.239-4.361-4.929-5.766-8.071
			c-1.403-3.141-2.105-6.65-2.105-10.527c0-3.876,0.702-7.385,2.105-10.527c1.404-3.141,3.324-5.831,5.766-8.071
			c2.438-2.238,5.313-3.96,8.622-5.163s6.833-1.805,10.577-1.805c3.475,0,6.633,0.602,9.475,1.805
			c2.841,1.203,5.247,2.925,7.219,5.163c1.971,2.24,3.492,4.931,4.562,8.071c1.069,3.143,1.604,6.651,1.604,10.527v4.712h-34.891
			c0.602,2.875,1.905,5.164,3.91,6.868c2.006,1.704,4.478,2.557,7.42,2.557c2.472,0,4.562-0.552,6.266-1.654
			c1.705-1.103,3.191-2.522,4.462-4.261L551.578,68.057z M538.845,46.601c0.066-2.539-0.769-4.712-2.506-6.517
			c-1.739-1.805-3.978-2.707-6.718-2.707c-1.672,0-3.143,0.268-4.411,0.802c-1.271,0.536-2.356,1.221-3.259,2.056
			c-0.902,0.836-1.604,1.805-2.105,2.907c-0.501,1.104-0.786,2.256-0.853,3.459H538.845z"/>
	</g>
	<path id="point-border_4_" class="st3" d="M357.686,82.361V25.453l41.187,41.287h-24.095l-1.46,0.441L357.686,82.361z"/>
	<path id="stem-border_4_" class="st3" d="M389.966,84.757l-12.81,5.454l-16.637-39.403l13.098-5.518L389.966,84.757z"/>
	<path id="stem_2_" class="st4" d="M375.746,78.119l-8.086-19.234l6.542-2.754l8.134,19.332L375.746,78.119z"/>
	<path id="point_4_" class="st4" d="M361.239,34.007v39.755l10.55-10.184l1.521-0.494h16.943L361.239,34.007z"/>
</g>
</svg>
