<?xml version="1.0" encoding="UTF-8" standalone="no"?>
<svg
   height="477"
   viewBox="0 0 319 477"
   width="319"
   version="1.1"
   id="svg73"
   sodipodi:docname="logo_pinia_orm.svg"
   inkscape:version="1.1.1 (3bf5ae0d25, 2021-09-20)"
   inkscape:export-filename="C:\Users\dredd\OneDrive\Bilder\logo_pinia_orm.png"
   inkscape:export-xdpi="105.06338"
   inkscape:export-ydpi="105.06338"
   xmlns:inkscape="http://www.inkscape.org/namespaces/inkscape"
   xmlns:sodipodi="http://sodipodi.sourceforge.net/DTD/sodipodi-0.dtd"
   xmlns:xlink="http://www.w3.org/1999/xlink"
   xmlns="http://www.w3.org/2000/svg"
   xmlns:svg="http://www.w3.org/2000/svg">
  <defs
     id="defs77" />
  <sodipodi:namedview
     id="namedview75"
     pagecolor="#505050"
     bordercolor="#eeeeee"
     borderopacity="1"
     inkscape:pageshadow="0"
     inkscape:pageopacity="0"
     inkscape:pagecheckerboard="0"
     showgrid="false"
     inkscape:zoom="1.8301887"
     inkscape:cx="156.26804"
     inkscape:cy="238.5"
     inkscape:window-width="2560"
     inkscape:window-height="1361"
     inkscape:window-x="-9"
     inkscape:window-y="-9"
     inkscape:window-maximized="1"
     inkscape:current-layer="svg73" />
  <linearGradient
     id="a">
    <stop
       offset="0"
       stop-color="#52ce63"
       id="stop2" />
    <stop
       offset="1"
       stop-color="#51a256"
       id="stop4" />
  </linearGradient>
  <linearGradient
     id="b"
     x1="153.55664"
     x2="134.59957"
     xlink:href="#a"
     y1="47.287311"
     y2="112.16115"
     gradientTransform="scale(0.76797326,1.3021287)"
     gradientUnits="userSpaceOnUse" />
  <linearGradient
     id="c"
     x1="355.58673"
     x2="336.60063"
     xlink:href="#a"
     y1="47.301655"
     y2="112.19507"
     gradientTransform="scale(0.76820915,1.3017288)"
     gradientUnits="userSpaceOnUse" />
  <linearGradient
     id="d"
     x1="271.9921"
     x2="271.9921"
     y1="0.60512799"
     y2="88.326585"
     gradientTransform="scale(0.69054461,1.4481324)"
     gradientUnits="userSpaceOnUse">
    <stop
       offset="0"
       stop-color="#8ae99c"
       id="stop9" />
    <stop
       offset="1"
       stop-color="#52ce63"
       id="stop11" />
  </linearGradient>
  <linearGradient
     id="e"
     x1="198.42117"
     x2="176.91509"
     y1="215.04148"
     y2="476.32004"
     gradientTransform="scale(0.95073861,1.0518138)"
     gradientUnits="userSpaceOnUse">
    <stop
       offset="0"
       stop-color="#ffe56c"
       id="stop14" />
    <stop
       offset="1"
       stop-color="#ffc63a"
       id="stop16" />
  </linearGradient>
  <g
     fill="none"
     fill-rule="evenodd"
     transform="matrix(0.99485522,0,0,0.99770537,-33.825078,-23.943172)"
     id="g71">
    <g
       transform="rotate(6.9999998,8.9766626,277.79885)"
       id="g25">
      <path
         d="m 103.95054,258.27415 c 44.36159,-4.36083 60.0145,-40.39128 65.35309,-94.69944 C 174.64222,109.26654 138.37144,60.123704 123.28328,61.606897 108.19513,63.09009 60.244751,120.51202 54.90616,174.82018 c -5.338591,54.30817 4.682775,87.8148 49.04438,83.45397 z"
         fill="url(#b)"
         transform="rotate(-45,111.71806,160.11414)"
         id="path19"
         style="fill:url(#b)" />
      <path
         d="m 275.87675,258.27399 c 44.3616,4.36083 53.16713,-29.26532 47.82854,-83.57348 C 318.3667,120.39235 271.63216,63.089933 256.544,61.60674 c -15.08815,-1.483194 -52.57477,47.54013 -47.23618,101.84829 5.3386,54.30816 22.20733,90.45814 66.56893,94.81896 z"
         fill="url(#c)"
         transform="rotate(45,266.94424,160.11336)"
         id="path21"
         style="fill:url(#c)" />
      <path
         d="m 188.37003,216.8763 c 39.94183,0 50.95265,-38.25198 50.95265,-97.89873 0,-59.646758 -37.36774,-118.10126456 -50.95265,-118.10126456 -13.58492,0 -52.04735,58.45450656 -52.04735,118.10126456 0,59.64675 12.10551,97.89873 52.04735,97.89873 z"
         fill="url(#d)"
         id="path23"
         style="fill:url(#d)" />
    </g>
    <path
       d="M 184.47347,501 C 267.59233,501 335,476.85485 335,367.35485 335,257.85485 267.59233,168 184.47347,168 101.35462,168 34,257.85485 34,367.35485 34,476.85485 101.35462,501 184.47347,501 Z"
       fill="url(#e)"
       id="path27"
       style="fill:url(#e)" />
    <ellipse
       cx="260.5"
       cy="335"
       fill="#eaadcc"
       rx="21.5"
       ry="10"
       id="ellipse29" />
    <ellipse
       cx="102.5"
       cy="329"
       fill="#eaadcc"
       rx="21.5"
       ry="10"
       transform="rotate(6.9999998,102.50001,329)"
       id="ellipse31" />
    <g
       transform="matrix(-0.99939083,0.0348995,0.0348995,0.99939083,269.28482,271.02767)"
       id="g49">
      <path
         d="m 73.104698,58.272879 c 6.737242,4.913034 14.313264,6.664059 22.728065,5.253077 8.414807,-1.410983 14.505447,-5.253577 18.271937,-11.527783"
         stroke="#000000"
         stroke-linecap="round"
         stroke-linejoin="round"
         stroke-width="6"
         transform="rotate(1.0000002,93.604673,57.99818)"
         id="path33" />
      <path
         d="M 154.50112,3 C 148.56358,3 143.18834,5.406298 139.29748,9.2968062 135.40654,13.187392 133,18.562261 133,24.499438 c 0,5.937689 2.40649,11.312742 6.29729,15.203427 C 143.18818,43.593632 148.56349,46 154.50112,46 c 5.93711,0 11.3119,-2.406389 15.20239,-6.297235 C 173.59381,35.812112 176,30.437102 176,24.499438 176,18.562286 173.59376,13.18746 169.70332,9.2969062 165.81285,5.4063195 160.43814,3 154.50112,3 Z"
         fill="#000000"
         id="path35" />
      <path
         d="m 154,21 c 0,-3.865549 3.13536,-7 6.99941,-7 3.8664,0 7.00059,3.134451 7.00059,7 0,3.865549 -3.13419,7 -7.00059,7 C 157.13536,27.998826 154,24.865549 154,21 Z"
         fill="#ffffff"
         id="path37" />
      <path
         d="M 24.5,13 C 18.562471,13 13.187574,15.406268 9.2970057,19.296718 5.4063111,23.187295 3,28.562195 3,34.499438 3,40.437193 5.4062596,45.812277 9.2968177,49.702953 13.187409,53.593662 18.562379,56 24.5,56 30.437125,56 35.812251,53.593581 39.703037,49.702677 43.593581,45.812015 46,40.437035 46,34.499438 46,28.562352 43.59353,23.187557 39.702849,19.296994 35.812086,15.40635 30.437034,13 24.5,13 Z"
         fill="#000000"
         id="path39" />
      <g
         fill="#ffffff"
         id="g47">
        <path
           d="M 136,24.499438 C 136,34.717961 144.28291,43 154.50112,43 164.71821,43 173,34.717961 173,24.499438 173,14.282039 164.71821,6 154.50112,6 144.28291,6 136,14.282039 136,24.499438 Z m -6,0 C 130,10.968243 140.96929,0 154.50112,0 168.03196,0 179,10.968371 179,24.499438 179,38.031399 168.03219,49 154.50112,49 140.96906,49 130,38.031527 130,24.499438 Z"
           fill-rule="nonzero"
           stroke="#ffffff"
           stroke-width="3"
           id="path41" />
        <path
           d="M 6,34.499438 C 6,44.717961 14.281787,53 24.5,53 34.717089,53 43,44.717961 43,34.499438 43,24.282039 34.717089,16 24.5,16 14.281787,16 6,24.282039 6,34.499438 Z m -6,0 C 0,20.968141 10.968268,10 24.5,10 38.03094,10 49,20.968473 49,34.499438 49,48.031297 38.03117,59 24.5,59 10.968038,59 0,48.031629 0,34.499438 Z"
           fill-rule="nonzero"
           stroke="#ffffff"
           stroke-width="3"
           id="path43" />
        <path
           d="m 24,31 c 0,-3.865549 3.134451,-7 7,-7 3.865549,0 7,3.134451 7,7 0,3.865549 -3.134451,7 -7,7 -3.865549,0 -7,-3.134451 -7,-7 z"
           id="path45" />
      </g>
    </g>
    <g
       stroke-linecap="round"
       stroke-width="11"
       id="g69">
      <g
         stroke="#ecb732"
         id="g55">
        <path
           d="m 70.5,377.5 74,77"
           id="path51" />
        <path
           d="m 134.5,386.5 -47,50"
           id="path53" />
      </g>
      <g
         stroke="#ecb732"
         transform="matrix(-1,0,0,1,298,377)"
         id="g61">
        <path
           d="m 0.5,0.5 74,77"
           id="path57" />
        <path
           d="m 64.5,9.5 -47,50"
           id="path59" />
      </g>
      <g
         stroke="#ffc73b"
         transform="rotate(90,4,211)"
         id="g67">
        <path
           d="m 0.5,0.5 49,49"
           id="path63" />
        <path
           d="m 0.5,10.5 49,49"
           transform="matrix(-1,0,0,1,50,0)"
           id="path65" />
      </g>
    </g>
  </g>
  <text
     xml:space="preserve"
     style="font-style:normal;font-weight:normal;font-size:73.3362px;line-height:1.25;font-family:sans-serif;fill:#ffffff;fill-opacity:1;stroke:none;stroke-width:1.83341"
     x="143.16956"
     y="119.55263"
     id="text24282"
     transform="scale(1.0036874,0.99632614)"><tspan
       sodipodi:role="line"
       id="tspan24280"
       x="143.16956"
       y="119.55263"
       style="font-style:normal;font-variant:normal;font-weight:normal;font-stretch:normal;font-size:73.3362px;font-family:'Snap ITC';-inkscape-font-specification:'Snap ITC, Normal';font-variant-ligatures:normal;font-variant-caps:normal;font-variant-numeric:normal;font-variant-east-asian:normal;fill:#ffffff;fill-opacity:1;stroke-width:1.83341">R</tspan></text>
  <text
     xml:space="preserve"
     style="font-style:normal;font-weight:normal;font-size:66.8702px;line-height:1.25;font-family:sans-serif;fill:#ffffff;fill-opacity:1;stroke:none;stroke-width:1.67175"
     x="253.76854"
     y="153.24348"
     id="text28684"
     transform="scale(0.91260736,1.0957615)"><tspan
       sodipodi:role="line"
       id="tspan28682"
       x="253.76854"
       y="153.24348"
       style="font-style:normal;font-variant:normal;font-weight:normal;font-stretch:normal;font-size:66.8702px;font-family:'Snap ITC';-inkscape-font-specification:'Snap ITC, Normal';font-variant-ligatures:normal;font-variant-caps:normal;font-variant-numeric:normal;font-variant-east-asian:normal;fill:#ffffff;fill-opacity:1;stroke-width:1.67175">M</tspan></text>
  <text
     xml:space="preserve"
     style="font-style:normal;font-variant:normal;font-weight:normal;font-stretch:normal;font-size:74.2083px;line-height:1.25;font-family:'Snap ITC';-inkscape-font-specification:'Snap ITC, Normal';font-variant-ligatures:normal;font-variant-caps:normal;font-variant-numeric:normal;font-variant-east-asian:normal;fill:#ffffff;fill-opacity:1;stroke:none;stroke-width:1.85521"
     x="48.112564"
     y="142.00684"
     id="text58648"
     transform="scale(0.97357256,1.0271448)"><tspan
       sodipodi:role="line"
       id="tspan58646"
       x="48.112564"
       y="142.00684"
       style="font-style:normal;font-variant:normal;font-weight:normal;font-stretch:normal;font-size:74.2083px;font-family:'Snap ITC';-inkscape-font-specification:'Snap ITC, Normal';font-variant-ligatures:normal;font-variant-caps:normal;font-variant-numeric:normal;font-variant-east-asian:normal;fill:#ffffff;fill-opacity:1;stroke-width:1.85521">O</tspan></text>
</svg>
